<svg xmlns="http://www.w3.org/2000/svg" xml:space="preserve" id="レイヤー_1" x="0" y="0" version="1.1" viewBox="0 0 191 235.8"><style>.st0{fill:#fff}</style><path d="M28.4 124.4h14.1v4.3h-8.9v5.3h8.3v4.2h-8.3v9.3h-5.2v-23.1zM48.2 141.6l-1.6 5.9h-5.4l7-23.1H55l7.2 23.1h-5.6l-1.8-5.9h-6.6zm5.8-3.9-1.4-4.9-1.2-4.5h-.1l-1.1 4.5-1.4 4.9H54zM79.9 146.9c-.9.4-3.1 1-5.9 1-8 0-12.1-5-12.1-11.6 0-7.9 5.6-12.2 12.6-12.2 2.7 0 4.8.5 5.7 1l-1.1 4.1c-1-.4-2.5-.9-4.4-.9-4.1 0-7.3 2.5-7.3 7.6 0 4.6 2.7 7.5 7.4 7.5 1.6 0 3.3-.3 4.4-.8l.7 4.3zM88.3 128.8h-6.2v-4.4h17.7v4.4h-6.3v18.7h-5.2v-18.7zM122.1 135.7c0 7.6-4.6 12.2-11.3 12.2-6.8 0-10.9-5.2-10.9-11.8 0-6.9 4.4-12.1 11.2-12.1 7.1 0 11 5.3 11 11.7zm-16.7.3c0 4.6 2.1 7.7 5.6 7.7 3.5 0 5.5-3.4 5.5-7.8 0-4.2-2-7.7-5.5-7.7-3.6 0-5.6 3.3-5.6 7.8zM124.1 124.7c1.7-.3 4.1-.5 6.9-.5 3.4 0 5.8.5 7.5 1.8a5.9 5.9 0 0 1 2.2 4.9 6 6 0 0 1-4.1 5.6v.1c1.6.7 2.5 2.2 3.1 4.3.7 2.6 1.4 5.6 1.9 6.5h-5.3a40 40 0 0 1-1.6-5.4c-.7-2.9-1.6-3.7-3.8-3.7h-1.5v9.1h-5.2v-22.7zm5.2 10h2.1c2.6 0 4.1-1.3 4.1-3.3 0-2.1-1.4-3.2-3.8-3.2-1.3 0-2 .1-2.4.2v6.3zM148.4 147.5v-9.4l-7.3-13.6h6l2.3 5.5 1.8 4.4h.1l1.7-4.4 2.3-5.5h5.9l-7.6 13.5v9.6h-5.2z" class="st0"/><g><path d="m71.6 48.5-.2-9.5h-.1c-.8 2.9-1.7 6.2-2.6 8.9l-2.8 9h-4.1L59.3 48c-.8-2.7-1.5-6-2.1-9h-.1l-.4 9.6-.4 8.8h-4.8L53 34.3h7l2.3 7.7c.8 2.7 1.4 5.5 1.9 8.2h.1c.6-2.7 1.4-5.7 2.2-8.3l2.4-7.7h6.8L77 57.4h-5l-.4-8.9zM93.4 47.6h-8.5v5.5h9.5v4.3H79.7V34.3h14.2v4.3h-9v4.8h8.5v4.2zM103.3 51.4l-1.6 5.9h-5.4l7-23.1h6.8l7.2 23.1h-5.6l-1.8-5.9h-6.6zm5.9-3.9-1.4-4.9-1.2-4.5h-.1l-1.1 4.5-1.4 4.9h5.2zM121.4 38.7h-6.2v-4.4h17.7v4.4h-6.3v18.7h-5.2V38.7z" class="st0"/></g><path d="m138.9 91.6-.6-2.3-.1-1.5-.2-1c-.1-.2.1-1.3 0-1.6l-.2-5.2-.1-4-.2-2.2-.6-2.1a11 11 0 0 0-1.3-1.7l-.9-1.2-.8-.5-.9-.5c-.3-.1-.4-.5-.9-.6l-2.3-.4c-1-.1-1.4.3-1.7.4h-1.4c-.4 0-.8.4-1.4.4l-2.4.2-2.6.2c-.6 0-2.3.6-2.7.6l-2.8.2-3.4-.1-3.4-.4-3.3-.1h-3.9l-4-.4-3-.3h-3.3c-.8.1-2.9-.4-3.2-.5-.2 0-1.8-.5-2.4-.5a97.9 97.9 0 0 0-7.3-1.6l-4.6-.5a20 20 0 0 1-2.9-.3l-3.4-.7c-1-.2-1 .2-1.7.2h-2.8c-.7 0-1.6.8-2.5.7a11 11 0 0 1-2.4-.5c-.5-.2-.6-.6-.3-1.1.3-.4.3-1.1-.1-1.9-.4-.9-.8-1.3-1.8-1.2-.6.1-.5 1.2-.2 1.7-.4.7-.7.6-1 .6-.4.1-.6-.5-1.4-.5-.4 0-.9.1-1.8.5-.1.5-.6.8-.8.9l-1.1.1c-.3 0-1 .7-1.2.9l-1.8 1.3c-.5.4-.8.8-1.2 1-.4.2-1.1.9-1.7 1-.6.2-1.5.7-2.1 1.2l-1.7 1.2c-.1.3-.2.5-.5.5l-1.2-.1c-.3 0-.9.6-1 .9 0 .3.3 1.1 0 1.5-.3.4.3 1.2.5 1.4.2.2.9.9.7 1-.2.1-.5 0-.8.2-.3.2-.1.3.7.6.8.4 2.2 1.1 3.3 1.4l2.7 1.1c.9.4 1 .6 1.9 1.2.9.6 2 .8 3.2 1.1 1.2.3 2.2.2 3.2.3 1 .1.5-.3 1.1.1.6.4 1.1 1.1 2 1.5.9.5 1 1 1.6 1.6l3.1 3.2c.8.7 2 2.4 2.3 2.8.3.4.1.8.8 1.8 1.4 2.2 2.7 3.5 4.5 4.6 1.8 1 4 1.8 5 2.9 1 1.1 2.2 2.5 2.9 4 .6 1.1 1 2.1.8 2.6-.4 1-.2 1.4-.2 1.9s.7 1.4 1.2 2c.6.7.8 1.1.9 1.9.1.8-.2 2.8-.2 3l-.2.5-.3 1.1c-.1.2-.2.4-.9.9s-1 .9-.8 1.2c.1.3.9.3.9.3-.3.3-1.4 1.4-1.4 1.6-.1.2-.4.9-.1 1.1.2.2 1.3.3 1.8.3s1.2.1 1.6 0c.4-.1 1.2-.6 1.7-1.1.5-.5.5-1.6.4-2.5 0 0 .9 1 1.3.7.3-.2.3-1.2 0-1.7.3-.1.5-.7.5-.9l.5-.8c.2-.4-.7-1.4-.8-1.7-.1-.3-.2-1.7-.4-2.2a11 11 0 0 1-.1-3.1c.1-.3.9-1.5.6-1.8-.3-.3-.1-1.2-.1-1.5l.6-3.4c3.2.4 8.5-.2 12.9-1.5l1.4.3c1 .3 5.8-.2 6.7 0a38.4 38.4 0 0 0 19.8-2.6l.3.8.5 1.2c.2.8 1.3 2.4 1.5 2.8.2.4.8.9.8 1.2l.4 3.1a17 17 0 0 1-1.3 6.5c-.2.5-.9.9-1.6 1.5l-2.7 2.5c-.4.3-.5.7-.5.7l.5.4-.3.1c-.1.1 0 .5.3.6l1.2.2h2.3c.4-.1 1.2-.3 1.4-.6l.6-1.8c.1-.2.3-.3.5-.1l.7.8s.7-.2.7-.9c0-.1-.1-1.1.1-1.3.2-.3.2-.9.2-1.2 0-.3 1.4-4 1.7-4.7.5 1.5-.5 5.3-.7 5.7-.2.4 0 1.2-.4 1.7a20 20 0 0 1-1.3 1.5l-2 2.5.6.1c.4 0 .1.3.4.5l.6.4h3.3c.4 0 1-.5 1.3-1.1a2 2 0 0 0 .1-1.5c-.1-.3-.1-.8.4-1.4.3.5.8.6 1.1.6.3 0 0-1-.1-1.2-.1-.2-.4-.6-.3-.9l.2-2.1.7-3.4.3-2.5.5-3.3c.2-.9.9-2.6.9-3.1 0-.6-.7-1.6-.9-1.9l-.5-1.6-.6-1.8.3-2.9c0-.7 1-2.5 1.3-3.3.3-.8 1.1-4.1 1.2-5.5.1.5 0 1.8.2 2.9.2 1-.1 2.6-.3 3.1-.2.5-.8 1.6-.7 2.3.1.7.3.6.3 1.7 0 1-.5 1.1-.5 2.3 0 1.2.2 2.3 1.1 3.7 0-.4.4-.7.5-1l.9-1.3c.2-.3.3-1.2.3-1.2l.6-1.5.4-2.4c-.4-.7-.5-1.5-.8-2z" class="st0"/><path d="M0 0v183.5h191V0H0zm185.7 178.2H5.3V5.3h180.4v172.9z" class="st0"/><path d="M9.4 9.4v164.8h172.3V9.4H9.4zm170.9 163.4H10.7V10.7h169.6v162.1z" class="st0"/><g><path d="M21.7 190.5v5.1h-6.9v22.9H8.5v-22.9H1.4v-5.1h20.3zM41.4 198a5.5 5.5 0 0 0-4.8-3.1c-3.2 0-3.2 2.4-3.2 2.7 0 2 1.8 2.8 3.5 3.4l3.5 1.3c1.7.6 3.6 1.8 4.7 3.3.3.5 1.5 2.3 1.5 4.9 0 1.3 0 5-3.9 7.4a11 11 0 0 1-5.3 1.4c-4.9 0-7.7-1.2-10.2-5.7l4.7-3.2c1 2.4 2.9 3.8 5.2 3.8 1.3 0 3.7-.6 3.7-3.2 0-2.1-1.1-2.6-5.3-4.2-4.2-1.6-7.8-3.5-7.8-9 0-4.6 3.3-7.9 9-7.9 4.1 0 6.9 1.7 9.2 5l-4.5 3.1zM54.2 190.5h6.3V209c0 1.7 0 5.1 3.7 5.1 1.2 0 3.9 0 3.9-5.1v-18.5h6.2V209c0 1.7 0 5.7-2.9 8a10.2 10.2 0 0 1-6.8 2.1c-2.9 0-5.9-.7-7.6-2.3-2.7-2.6-2.8-5.8-2.8-8.3v-18zM83.4 190.5h6.2v28h-6.2v-28zm21.5 0-8.5 13 9.8 14.9H99L89.8 204l8.4-13.5h6.7zM112.5 190.5h6.3V209c0 1.7 0 5.1 3.7 5.1 1.2 0 3.9 0 3.9-5.1v-18.5h6.2V209c0 1.7 0 5.7-2.9 8a10.2 10.2 0 0 1-6.8 2.1c-2.9 0-5.9-.7-7.6-2.3-2.7-2.6-2.8-5.8-2.8-8.3v-18zM142 190.5h9.1c2.4 0 4.7.2 6.3 1.1a7 7 0 0 1 3 5.9c0 3.4-1.7 5.6-3.8 6.1v.2c1.8.3 4.4 2.3 4.4 6.4 0 2.1-.3 4.2-2.2 6-2 2.1-4.4 2.2-7.9 2.2H142v-27.9zm5.9 11.4c4.9 0 6.5-.2 6.5-3.7 0-3.4-2.5-3.4-3.7-3.4h-2.8v7.1zm0 12.2h3c2.4 0 3.9-1.1 3.9-4 0-1.3-.3-2.9-1.8-3.5-.9-.3-3-.3-5.2-.3v7.8zM182 190.5l8 28h-5.9l-1.4-5.6h-8.5l-1.4 5.6h-5.9l7.8-28h7.3zm-3.6 5h-.2l-3 12.6h6.2l-3-12.6z" class="st0"/></g><g><path d="M12 235v-9.3h1.5l1.8 6.6.4 1.4.4-1.5 1.8-6.5h1.4v9.3h-1v-7.8l-2.2 7.8h-.9l-2.2-7.9v7.9h-1zM21.4 235l2.9-9.3h1.1l3.1 9.3h-1.2l-.9-2.8h-3.2l-.8 2.8h-1zm2.2-3.8h2.6l-.8-2.6-.5-1.9-.4 1.8-.9 2.7zM30.6 235v-9.3h1l4 7.3v-7.3h1v9.3h-1l-4-7.3v7.3h-1zM38.8 235l2.9-9.3h1.1L46 235h-1.2l-.9-2.8h-3.2l-.8 2.8h-1.1zm2.2-3.8h2.6l-.8-2.6-.5-1.9-.4 1.8-.9 2.7zM51.7 231.4v-1.1h3.2v3.5c-.5.5-1 .8-1.5 1.1s-1.1.4-1.6.4c-.7 0-1.4-.2-2-.6-.6-.4-1-.9-1.4-1.6-.3-.7-.5-1.6-.5-2.6s.2-1.9.5-2.7.8-1.3 1.3-1.7c.6-.4 1.2-.5 2-.5.6 0 1 .1 1.5.3.4.2.8.5 1 .9s.5.9.6 1.6l-.9.3-.5-1.2c-.2-.3-.4-.5-.7-.6a3 3 0 0 0-1-.2c-.6 0-1 .1-1.4.4-.4.3-.7.7-1 1.3-.2.6-.4 1.3-.4 2.1 0 1.2.3 2.2.8 2.8s1.2.9 2 .9l1.2-.3 1-.7v-1.7h-2.2zM57.7 235v-9.3h5.5v1.1h-4.5v2.8h4.2v1.1h-4.2v3.2h4.7v1.1h-5.7zM66 235v-9.3h1.5l1.8 6.6.4 1.4.4-1.5 1.8-6.5h1.4v9.3h-1v-7.8l-2.2 7.8h-.9l-2.2-7.9v7.9h-1zM76.3 235v-9.3h5.5v1.1h-4.5v2.8h4.2v1.1h-4.2v3.2H82v1.1h-5.7zM84.6 235v-9.3h1l4 7.3v-7.3h1v9.3h-1l-4-7.3v7.3h-1zM95.6 235v-8.2h-2.5v-1.1h6v1.1h-2.5v8.2h-1zM101.5 235v-9.3h5.5v1.1h-4.5v2.8h4.2v1.1h-4.2v3.2h4.7v1.1h-5.7zM109.8 235v-9.3h2.6l1.5.2c.4.1.8.4 1.2.8.3.4.6.9.8 1.5a7.2 7.2 0 0 1-.2 4.8c-.3.7-.7 1.3-1.2 1.6-.5.3-1.1.5-1.9.5h-2.8zm1.1-1.1h1.6c.7 0 1.2-.1 1.5-.3s.6-.6.8-1c.2-.6.4-1.4.4-2.3 0-.9-.1-1.7-.4-2.2-.3-.5-.6-.9-1-1.1a4 4 0 0 0-1.3-.2h-1.6v7.1zM123.1 235v-9.3h2.9c.6 0 1 .1 1.4.3s.6.5.8.8a2.8 2.8 0 0 1 0 2.5c-.2.3-.4.6-.8.8.4.2.8.4 1 .8s.4.9.4 1.4c0 .6-.1 1.1-.3 1.5-.2.4-.5.7-.9.9s-.9.3-1.6.3h-2.9zm1-5.4h1.7l.9-.1c.3-.1.5-.2.6-.4l.2-.9-.2-.8-.5-.5-1.2-.1h-1.5v2.8zm0 4.3h1.9l.9-.1.7-.5c.2-.2.2-.6.2-.9l-.2-.9a1 1 0 0 0-.6-.5l-1.1-.2h-1.8v3.1zM133.7 235v-3.9l-2.9-5.4h1.2l1.5 2.8.8 1.6.8-1.6 1.5-2.7h1.2l-3 5.4v3.9h-1.1zM146.2 235v-8.2h-2.5v-1.1h6v1.1h-2.5v8.2h-1zM151.7 230.5c0-1.6.3-2.8 1-3.7a3.2 3.2 0 0 1 4.4-.7c.6.4 1 .9 1.3 1.7.3.7.5 1.6.5 2.6a6 6 0 0 1-.9 3.4 3 3 0 0 1-2.7 1.4c-1.1 0-2-.5-2.7-1.5-.5-.9-.9-1.9-.9-3.2zm1.1 0c0 1.1.3 2 .8 2.7s1.1 1 1.8 1 1.4-.3 1.9-1c.5-.6.8-1.6.8-2.8 0-.8-.1-1.5-.4-2.1-.2-.5-.5-.9-.9-1.2a2 2 0 0 0-1.3-.4c-.8 0-1.4.3-1.9 1-.6.5-.8 1.5-.8 2.8zM161.6 235v-9.3h1l4 7.3v-7.3h1v9.3h-1l-4-7.3v7.3h-1zM176.4 234l1.3.9-.3.9c-.6-.2-1.1-.6-1.6-1.1-.6.4-1.2.6-1.9.6-1.1 0-2-.5-2.7-1.5-.6-.9-.9-2-.9-3.3 0-1 .2-1.9.5-2.6.3-.7.8-1.3 1.3-1.7s1.2-.5 1.8-.5c.7 0 1.3.2 1.8.6.6.4 1 .9 1.3 1.7.3.7.5 1.6.5 2.6 0 .8-.1 1.5-.3 2.1a3 3 0 0 1-.8 1.3zm-2.2-1.5c.6.2 1.1.5 1.4.9.6-.7.9-1.7.9-3 0-.8-.1-1.5-.3-2-.2-.6-.5-1-.9-1.3s-.8-.4-1.3-.4c-.8 0-1.4.3-1.9 1-.5.6-.7 1.6-.7 2.8 0 1.2.3 2.2.8 2.8.5.6 1.1 1 1.9 1l1-.2-1-.5.1-1.1z" class="st0"/></g></svg>